<svg width="332" height="50" viewBox="0 0 332 50" fill="none" xmlns="http://www.w3.org/2000/svg">
    <path d="M35.0034 45.2929V25.6431L25.7451 45.2929H18.641L9.38654 25.6431V45.2929H3.39545V12.5739H9.47331L22.1912 39.3899L34.909 12.5739H40.9869V45.2929H35.0034Z" fill="white" fill-opacity="0.3" />
    <path d="M115.702 12.0877C126.911 12.1184 134.177 19.6559 134.177 28.9545C134.177 38.2453 126.922 45.7791 115.725 45.8173C115.694 45.8173 63.8534 45.8173 63.8232 45.8173C52.5767 45.8173 45.284 38.2644 45.284 28.9545C45.284 19.6445 52.5767 12.0877 63.8232 12.0877C63.8459 12.0877 115.679 12.0877 115.702 12.0877ZM115.736 40.0598C124.032 40.0254 127.511 35.8566 127.511 28.9545C127.511 22.0447 124.025 17.872 115.706 17.8491C115.683 17.8491 63.8459 17.8491 63.8232 17.8491C55.4553 17.8491 51.9505 22.0255 51.9505 28.9545C51.9505 35.8834 55.4553 40.0598 63.8232 40.0598C63.8572 40.0598 115.702 40.0598 115.736 40.0598Z" fill="white" fill-opacity="0.3" />
    <path d="M165.777 35.5733L170.795 38.8157C167.622 43.0458 162.291 45.8059 155.501 45.8059C144.254 45.8059 136.961 38.253 136.961 28.943C136.961 19.633 144.254 12.0763 155.501 12.0763C162.284 12.0763 167.611 14.8325 170.784 19.0549L165.766 22.2974C163.989 19.4377 160.68 17.8376 155.504 17.8376C147.136 17.8376 143.631 22.0141 143.631 28.943C143.631 35.8719 147.136 40.0484 155.504 40.0484C160.688 40.0522 164.004 38.4444 165.777 35.5733Z" fill="white" fill-opacity="0.3" />
    <path d="M200.256 45.9934H199.102L188.542 6.0661H189.697L200.256 45.9934Z" fill="white" fill-opacity="0.3" />
    <path fill-rule="evenodd" clip-rule="evenodd" d="M225.217 42.0581C223.832 43.2869 221.41 44.7531 219.448 44.6345L219.331 45.1053H235.543L241.255 23.5032L252.504 28.5804C250.632 31.4544 249.74 34.5269 249.97 37.6443C250.585 45.6221 258.692 47.5055 270.987 42.5979C277.078 40.1652 281.727 36.0438 283.345 31.6801C286.152 33.4607 289.903 34.6085 293.3 35.6483C298.221 37.1545 302.402 38.434 301.905 41.0819C301.675 42.5443 301.041 43.8918 297.117 44.5349C295.389 44.8259 293.081 44.5923 290.542 44.1253C290.138 44.0066 284.886 36.4537 284.886 36.4537C282.634 36.3389 278.654 39.2062 278.654 39.2062L278.537 39.6732C280.672 42.5405 287.825 45.2929 294.231 45.2929C298.518 45.2929 305.819 43.4267 306.91 38.675C309.074 42.9805 315.285 45.1015 320.203 45.1015C327.412 45.1015 329.951 39.8914 327.933 35.267V35.2709H327.356C329.148 39.8378 327.186 43.7004 322.165 44.2287C317.312 44.6851 317.314 41.2837 317.316 36.5941C317.317 36.4855 317.317 36.3762 317.317 36.2662L317.2 17.003H325.568V16.4173H304.682C318.067 14.7751 318.645 5.99335 318.011 5.11671L317.32 4.88319C317.32 4.88319 312.012 4.94444 310.107 6.99249C310.107 6.99249 312.069 16.0651 300.298 16.4173H300.007V17.003H306.123V33.7127C303.843 29.6435 297.766 27.8053 292.594 26.241C288.076 24.8743 284.249 23.7166 284.249 21.4628C284.249 18.0673 288.172 17.3093 292.443 17.1906C292.847 17.1906 298.502 24.1004 298.502 24.1004C300.751 23.7482 304.618 20.1191 304.618 20.1191V19.6521C303.75 19.009 299.019 16.6087 293.077 16.6087C285.443 16.6087 280.484 19.365 279.281 23.0263C278.131 22.9486 276.816 23.1722 275.394 23.7405C274.051 24.2765 272.583 25.134 271.074 26.336L276.443 21.6351C276.748 21.6198 277.088 21.5394 277.356 21.4322C278.857 20.8312 279.759 18.6759 280.053 17.3591C281.072 14.3923 271.693 15.6326 268.365 16.9609C263.806 18.7808 259.974 21.0303 257.006 23.5632C257.26 22.4852 257.381 21.5797 257.296 21.2178C257.213 21.2473 257.062 21.1808 256.903 21.1103C256.732 21.0347 256.551 20.9546 256.432 20.9843C253.316 21.9796 249.739 22.9749 245.239 22.9749C244.028 22.9749 242.817 22.9175 241.489 22.7414L246.22 4.88703L266.588 12.907C268.837 12.0877 271.55 5.70625 271.55 5.70625V5.29664C270.383 4.68013 267.665 4.56255 264.989 4.44679C264.359 4.41951 263.73 4.39233 263.125 4.35875C257.183 4.12523 246.567 4.00656 243.22 4.00656H239.93C238.025 5.52633 232.66 6.34555 229.891 6.69773L229.774 7.04992L234.045 8.45484L225.217 42.0581ZM278.997 24.8048C278.997 24.5388 279.015 24.2756 279.051 24.0159C277.73 23.9215 276.171 24.1937 274.47 24.8737C272.429 25.6891 270.233 27.0557 267.913 29.0693L260.473 35.6307C261.337 41.059 265.43 44.2708 271.553 41.8246C276.99 39.6538 281.423 35.5004 282.872 31.368C280.561 29.7778 278.997 27.7003 278.997 24.8048ZM260.367 34.8046C260.371 34.7348 260.375 34.6646 260.375 34.5818C260.058 30.2407 261.099 20.2991 268.513 17.3399C273.424 15.3772 274.474 18.2715 275.528 21.1787L275.531 21.1859C275.582 21.3268 275.633 21.4678 275.685 21.6083L260.36 35.022C260.36 34.9421 260.363 34.8735 260.367 34.8046Z" fill="white" fill-opacity="0.3" />
</svg>